<svg width="1920" height="1080" viewBox="0 0 1920 1080" fill="none" xmlns="http://www.w3.org/2000/svg">
  <defs>
    <linearGradient id="bg" x1="0" y1="0" x2="1920" y2="1080" gradientUnits="userSpaceOnUse">
      <stop offset="0" stop-color="#03173F"/>
      <stop offset="0.5" stop-color="#0A4C99"/>
      <stop offset="1" stop-color="#021A52"/>
    </linearGradient>
    <radialGradient id="glowA" cx="0" cy="0" r="1" gradientUnits="userSpaceOnUse" gradientTransform="translate(450 320) rotate(20) scale(700 480)">
      <stop stop-color="#58D1FF" stop-opacity="0.48"/>
      <stop offset="1" stop-color="#58D1FF" stop-opacity="0"/>
    </radialGradient>
    <radialGradient id="glowB" cx="0" cy="0" r="1" gradientUnits="userSpaceOnUse" gradientTransform="translate(1420 220) rotate(-18) scale(560 340)">
      <stop stop-color="#7BEA71" stop-opacity="0.36"/>
      <stop offset="1" stop-color="#7BEA71" stop-opacity="0"/>
    </radialGradient>
    <filter id="blurSoft" x="-20%" y="-20%" width="140%" height="140%" color-interpolation-filters="sRGB">
      <feGaussianBlur stdDeviation="8"/>
    </filter>
  </defs>

  <rect width="1920" height="1080" fill="url(#bg)"/>
  <rect width="1920" height="1080" fill="url(#glowA)"/>
  <rect width="1920" height="1080" fill="url(#glowB)"/>

  <g stroke="#6DE0FF" stroke-opacity="0.24" stroke-width="2.2" stroke-linecap="round" stroke-linejoin="round">
    <path d="M-80 250H190L240 200H340L410 270H590L680 180H860"/>
    <path d="M-40 340H230L300 270H500L590 360H760L870 300H1030"/>
    <path d="M30 460H270L350 380H580L660 460H870L980 400H1220"/>
    <path d="M140 610H360L440 530H670L770 620H960L1080 560H1320"/>
    <path d="M10 760H230L340 660H540L640 760H840L980 700H1160"/>
    <path d="M250 900H440L520 820H710L830 900H990L1130 840H1310"/>
    <path d="M980 240H1140L1240 170H1410L1490 250H1670L1780 190H1980"/>
    <path d="M1080 360H1260L1370 290H1540L1630 370H1790L1890 310H2040"/>
    <path d="M1220 520H1390L1480 450H1640L1730 530H1880L1970 470H2120"/>
    <path d="M1120 700H1290L1390 620H1570L1650 700H1820L1940 640H2110"/>
  </g>

  <g fill="#79E4FF" fill-opacity="0.55">
    <circle cx="180" cy="250" r="6"/>
    <circle cx="356" cy="270" r="5"/>
    <circle cx="592" cy="360" r="5"/>
    <circle cx="860" cy="180" r="6"/>
    <circle cx="978" cy="400" r="6"/>
    <circle cx="1320" cy="560" r="5"/>
    <circle cx="1410" cy="170" r="6"/>
    <circle cx="1670" cy="250" r="5"/>
    <circle cx="1880" cy="530" r="6"/>
    <circle cx="990" cy="900" r="5"/>
    <circle cx="1310" cy="840" r="6"/>
  </g>

  <g fill="#8EEB79" fill-opacity="0.42" filter="url(#blurSoft)">
    <ellipse cx="1320" cy="260" rx="38" ry="20" transform="rotate(-24 1320 260)"/>
    <ellipse cx="1410" cy="220" rx="28" ry="15" transform="rotate(18 1410 220)"/>
    <ellipse cx="1480" cy="310" rx="34" ry="18" transform="rotate(-12 1480 310)"/>
    <ellipse cx="1620" cy="260" rx="26" ry="14" transform="rotate(28 1620 260)"/>
    <ellipse cx="1690" cy="350" rx="30" ry="17" transform="rotate(-20 1690 350)"/>
  </g>

  <g fill="#77DEFF" fill-opacity="0.4" filter="url(#blurSoft)">
    <circle cx="220" cy="160" r="5"/>
    <circle cx="310" cy="220" r="4"/>
    <circle cx="540" cy="180" r="5"/>
    <circle cx="760" cy="260" r="4"/>
    <circle cx="920" cy="320" r="5"/>
    <circle cx="1180" cy="260" r="5"/>
    <circle cx="1480" cy="150" r="4"/>
    <circle cx="1760" cy="220" r="5"/>
  </g>

  <g font-family="Inter, Arial, sans-serif" font-size="17" font-weight="600">
    <g>
      <line x1="180" y1="250" x2="150" y2="210" stroke="#7CE9FF" stroke-opacity="0.5" stroke-width="1.5"/>
      <rect x="40" y="186" width="112" height="34" rx="8" fill="#04295D" fill-opacity="0.72" stroke="#6EE5FF" stroke-opacity="0.45"/>
      <text x="56" y="208" fill="#C9F5FF">Identity</text>
    </g>
    <g>
      <line x1="356" y1="270" x2="360" y2="230" stroke="#7CE9FF" stroke-opacity="0.5" stroke-width="1.5"/>
      <rect x="366" y="214" width="144" height="34" rx="8" fill="#04295D" fill-opacity="0.72" stroke="#6EE5FF" stroke-opacity="0.45"/>
      <text x="380" y="236" fill="#C9F5FF">Credit Score</text>
    </g>
    <g>
      <line x1="592" y1="360" x2="620" y2="322" stroke="#7CE9FF" stroke-opacity="0.5" stroke-width="1.5"/>
      <rect x="626" y="306" width="116" height="34" rx="8" fill="#04295D" fill-opacity="0.72" stroke="#6EE5FF" stroke-opacity="0.45"/>
      <text x="641" y="328" fill="#C9F5FF">Debt Mix</text>
    </g>
    <g>
      <line x1="860" y1="180" x2="920" y2="144" stroke="#7CE9FF" stroke-opacity="0.5" stroke-width="1.5"/>
      <rect x="926" y="126" width="126" height="34" rx="8" fill="#04295D" fill-opacity="0.72" stroke="#6EE5FF" stroke-opacity="0.45"/>
      <text x="940" y="148" fill="#C9F5FF">Risk Status</text>
    </g>
    <g>
      <line x1="978" y1="400" x2="1040" y2="430" stroke="#7CE9FF" stroke-opacity="0.5" stroke-width="1.5"/>
      <rect x="1046" y="414" width="92" height="34" rx="8" fill="#04295D" fill-opacity="0.72" stroke="#6EE5FF" stroke-opacity="0.45"/>
      <text x="1061" y="436" fill="#C9F5FF">Income</text>
    </g>
    <g>
      <line x1="1320" y1="560" x2="1386" y2="592" stroke="#7CE9FF" stroke-opacity="0.5" stroke-width="1.5"/>
      <rect x="1392" y="576" width="110" height="34" rx="8" fill="#04295D" fill-opacity="0.72" stroke="#6EE5FF" stroke-opacity="0.45"/>
      <text x="1406" y="598" fill="#C9F5FF">Expenses</text>
    </g>
    <g>
      <line x1="1410" y1="170" x2="1490" y2="130" stroke="#7CE9FF" stroke-opacity="0.5" stroke-width="1.5"/>
      <rect x="1496" y="112" width="138" height="34" rx="8" fill="#04295D" fill-opacity="0.72" stroke="#6EE5FF" stroke-opacity="0.45"/>
      <text x="1510" y="134" fill="#C9F5FF">Monthly Plan</text>
    </g>
    <g>
      <line x1="1670" y1="250" x2="1740" y2="282" stroke="#7CE9FF" stroke-opacity="0.5" stroke-width="1.5"/>
      <rect x="1746" y="266" width="128" height="34" rx="8" fill="#04295D" fill-opacity="0.72" stroke="#6EE5FF" stroke-opacity="0.45"/>
      <text x="1760" y="288" fill="#C9F5FF">Legal Check</text>
    </g>
    <g>
      <line x1="1880" y1="530" x2="1786" y2="566" stroke="#7CE9FF" stroke-opacity="0.5" stroke-width="1.5"/>
      <rect x="1650" y="550" width="130" height="34" rx="8" fill="#04295D" fill-opacity="0.72" stroke="#6EE5FF" stroke-opacity="0.45"/>
      <text x="1664" y="572" fill="#C9F5FF">Get Help</text>
    </g>
    <g>
      <line x1="990" y1="900" x2="930" y2="940" stroke="#7CE9FF" stroke-opacity="0.5" stroke-width="1.5"/>
      <rect x="802" y="924" width="120" height="34" rx="8" fill="#04295D" fill-opacity="0.72" stroke="#6EE5FF" stroke-opacity="0.45"/>
      <text x="816" y="946" fill="#C9F5FF">Savings</text>
    </g>
    <g>
      <line x1="1310" y1="840" x2="1390" y2="808" stroke="#7CE9FF" stroke-opacity="0.5" stroke-width="1.5"/>
      <rect x="1396" y="792" width="122" height="34" rx="8" fill="#04295D" fill-opacity="0.72" stroke="#6EE5FF" stroke-opacity="0.45"/>
      <text x="1410" y="814" fill="#C9F5FF">Cashflow</text>
    </g>
  </g>
</svg>
